<svg width="31" height="30" viewBox="0 0 31 30" fill="none" xmlns="http://www.w3.org/2000/svg">
<mask id="mask0_8_189" style="mask-type:alpha" maskUnits="userSpaceOnUse" x="0" y="0" width="31" height="30">
<rect x="0.5" width="30" height="30" fill="#D9D9D9"/>
</mask>
<g mask="url(#mask0_8_189)">
<path d="M25.4375 26.25C22.8333 26.25 20.2604 25.6823 17.7188 24.5469C15.1771 23.4115 12.8646 21.8021 10.7812 19.7188C8.69792 17.6354 7.08854 15.3229 5.95313 12.7812C4.81771 10.2396 4.25 7.66667 4.25 5.0625C4.25 4.6875 4.375 4.375 4.625 4.125C4.875 3.875 5.1875 3.75 5.5625 3.75H10.625C10.9167 3.75 11.1771 3.84896 11.4062 4.04688C11.6354 4.24479 11.7708 4.47917 11.8125 4.75L12.625 9.125C12.6667 9.45833 12.6562 9.73958 12.5938 9.96875C12.5312 10.1979 12.4167 10.3958 12.25 10.5625L9.21875 13.625C9.63542 14.3958 10.1302 15.1406 10.7031 15.8594C11.276 16.5781 11.9062 17.2708 12.5938 17.9375C13.2396 18.5833 13.9167 19.1823 14.625 19.7344C15.3333 20.2865 16.0833 20.7917 16.875 21.25L19.8125 18.3125C20 18.125 20.2448 17.9844 20.5469 17.8906C20.849 17.7969 21.1458 17.7708 21.4375 17.8125L25.75 18.6875C26.0417 18.7708 26.2812 18.9219 26.4688 19.1406C26.6562 19.3594 26.75 19.6042 26.75 19.875V24.9375C26.75 25.3125 26.625 25.625 26.375 25.875C26.125 26.125 25.8125 26.25 25.4375 26.25ZM8.03125 11.25L10.0938 9.1875L9.5625 6.25H6.78125C6.88542 7.10417 7.03125 7.94792 7.21875 8.78125C7.40625 9.61458 7.67708 10.4375 8.03125 11.25ZM19.2188 22.4375C20.0313 22.7917 20.8594 23.0729 21.7031 23.2812C22.5469 23.4896 23.3958 23.625 24.25 23.6875V20.9375L21.3125 20.3438L19.2188 22.4375Z" fill="white" fill-opacity="0.8"/>
</g>
</svg>
