<svg width="31" height="30" viewBox="0 0 31 30" fill="none" xmlns="http://www.w3.org/2000/svg">
<mask id="mask0_8_180" style="mask-type:alpha" maskUnits="userSpaceOnUse" x="0" y="0" width="31" height="30">
<rect x="0.5" width="30" height="30" fill="#D9D9D9"/>
</mask>
<g mask="url(#mask0_8_180)">
<path d="M5.50012 25C4.81262 25 4.22408 24.7552 3.7345 24.2656C3.24491 23.776 3.00012 23.1875 3.00012 22.5V7.5C3.00012 6.8125 3.24491 6.22396 3.7345 5.73438C4.22408 5.24479 4.81262 5 5.50012 5H25.5001C26.1876 5 26.7762 5.24479 27.2657 5.73438C27.7553 6.22396 28.0001 6.8125 28.0001 7.5V22.5C28.0001 23.1875 27.7553 23.776 27.2657 24.2656C26.7762 24.7552 26.1876 25 25.5001 25H5.50012ZM15.5001 16.25L5.50012 10V22.5H25.5001V10L15.5001 16.25ZM15.5001 13.75L25.5001 7.5H5.50012L15.5001 13.75ZM5.50012 10V7.5V22.5V10Z" fill="white" fill-opacity="0.8"/>
</g>
</svg>
