<svg width="50" height="50" viewBox="0 0 50 50" fill="none" xmlns="http://www.w3.org/2000/svg">
<path d="M39.8542 2H10.1458C5.64701 2 2 5.74053 2 10.3547V39.6453C2 44.2595 5.64701 48 10.1458 48H39.8542C44.353 48 48 44.2595 48 39.6453V10.3547C48 5.74053 44.353 2 39.8542 2Z" fill="#330000"/>
<path d="M25.019 31.0749H17.8907L16.4404 35.6958C16.4207 35.7801 16.3729 35.8546 16.3053 35.9066C16.2377 35.9586 16.1545 35.9848 16.0701 35.9806H12.4597C12.2538 35.9806 12.1818 35.8646 12.2437 35.6325L18.4153 17.4023C18.4771 17.2125 18.5388 16.9962 18.6005 16.7535C18.6812 16.3312 18.7226 15.902 18.7239 15.4717C18.7198 15.4416 18.7225 15.411 18.7318 15.3821C18.7412 15.3533 18.757 15.3271 18.778 15.3056C18.7989 15.2841 18.8245 15.2679 18.8526 15.2583C18.8807 15.2486 18.9106 15.2459 18.94 15.2502H23.8464C23.9901 15.2502 24.0724 15.3029 24.0932 15.4084L31.0981 35.6641C31.1598 35.8753 31.0981 35.9808 30.9129 35.9806H26.9013C26.8324 35.9885 26.7631 35.9703 26.7063 35.9295C26.6495 35.8888 26.6092 35.8282 26.5928 35.7591L25.019 31.0749ZM19.0016 27.0871H23.8772C23.7538 26.6653 23.6098 26.1906 23.4452 25.6629C23.2803 25.1357 23.1055 24.5713 22.9207 23.9696C22.7355 23.3683 22.5503 22.767 22.3652 22.1656C22.18 21.5643 22.0103 20.984 21.856 20.4249C21.7017 19.8661 21.5629 19.3544 21.4395 18.8899H21.4086C21.2349 19.7447 21.0186 20.5897 20.7606 21.4218C20.4723 22.3713 20.1791 23.3419 19.8811 24.3336C19.5826 25.3256 19.2895 26.2435 19.0016 27.0871Z" fill="#FF9A00"/>
<path d="M35.269 18.6051C34.9543 18.6181 34.6404 18.5628 34.348 18.4428C34.0555 18.3228 33.791 18.1409 33.5718 17.9088C33.3532 17.6668 33.1835 17.3828 33.0722 17.0732C32.961 16.7636 32.9105 16.4345 32.9237 16.1048C32.9125 15.7784 32.9686 15.4532 33.0882 15.1506C33.2079 14.8479 33.3884 14.5745 33.6181 14.3483C33.8455 14.1243 34.114 13.9489 34.4079 13.8321C34.7019 13.7153 35.0156 13.6595 35.3307 13.6678C36.0714 13.6678 36.6525 13.8946 37.0742 14.3483C37.2871 14.584 37.4525 14.8605 37.5611 15.1619C37.6696 15.4633 37.7191 15.7837 37.7068 16.1048C37.7197 16.4358 37.6676 16.766 37.5537 17.0759C37.4397 17.3858 37.2661 17.6691 37.0434 17.9088C36.8105 18.1443 36.5326 18.3277 36.2273 18.4475C35.9219 18.5673 35.5956 18.621 35.269 18.6051ZM33.1397 35.6642V20.5357C33.1397 20.3459 33.2217 20.2509 33.3866 20.2509H37.1822C37.3467 20.2509 37.429 20.3458 37.4291 20.5357V35.6642C37.4291 35.8754 37.3468 35.9809 37.1822 35.9807H33.4175C33.2324 35.9807 33.1398 35.8752 33.1397 35.6642Z" fill="#FF9A00"/>
</svg>
