<svg width="50" height="50" viewBox="0 0 50 50" fill="none" xmlns="http://www.w3.org/2000/svg">
<g clip-path="url(#clip0_8_332)">
<path d="M42.8738 19.4393L40.866 13.2596L36.8867 1.01387C36.6824 0.383398 35.791 0.383398 35.5859 1.01387L31.6066 13.26H18.3933L14.414 1.01387C14.2093 0.383398 13.3179 0.383398 13.1132 1.01387L9.13395 13.26L7.12613 19.4396C7.03689 19.7144 7.03689 20.0103 7.12615 20.285C7.21541 20.5597 7.38933 20.7991 7.62301 20.9689L25 33.5936L42.3769 20.9686C42.6106 20.7987 42.7845 20.5593 42.8738 20.2846C42.963 20.0099 42.963 19.714 42.8738 19.4393Z" fill="#FC6D26"/>
<path d="M25 33.5934L31.6066 13.2598H18.3933L25 33.5934Z" fill="#E24329"/>
<path d="M25 33.5934L18.3934 13.2598H9.13403L25 33.5934Z" fill="#FC6D26"/>
<path d="M9.13397 13.2598L7.12615 19.4395C7.037 19.7141 7.03705 20.01 7.12631 20.2846C7.21556 20.5592 7.38943 20.7986 7.62303 20.9684L25 33.5934L9.13397 13.2598Z" fill="#FCA326"/>
<path d="M9.13403 13.2604H18.3934L14.4141 1.01357C14.2094 0.383496 13.318 0.383496 13.1133 1.01357L9.13403 13.2604Z" fill="#E24329"/>
<path d="M25 33.5934L31.6066 13.2598H40.866L25 33.5934Z" fill="#FC6D26"/>
<path d="M40.866 13.2598L42.8738 19.4395C42.963 19.7141 42.9629 20.01 42.8737 20.2846C42.7844 20.5592 42.6105 20.7986 42.377 20.9684L25 33.5934L40.866 13.2598Z" fill="#FCA326"/>
<path d="M40.8661 13.2604H31.6067L35.586 1.01357C35.7907 0.383496 36.6821 0.383496 36.8868 1.01357L40.8661 13.2604Z" fill="#E24329"/>
<path d="M25.5418 36.7117H23.7879L23.7938 49.7605H30.8875V48.1473H25.5469L25.541 36.7117H25.5418ZM37.6418 47.4695C37.3609 47.7616 37.0235 47.9935 36.6501 48.151C36.2767 48.3085 35.8752 48.3885 35.4699 48.3859C34.1348 48.3859 33.5969 47.7281 33.5969 46.8715C33.5969 45.5766 34.4934 44.959 36.4063 44.959C36.7649 44.959 37.3426 44.9988 37.6414 45.0586V47.4688L37.6418 47.4695ZM35.8285 39.5605C34.4129 39.5605 33.1137 40.0625 32.1008 40.8977L32.7207 41.9707C33.4379 41.5527 34.3145 41.134 35.5699 41.134C37.0047 41.134 37.6422 41.8711 37.6422 43.1066V43.7434C37.3633 43.684 36.7856 43.6441 36.4274 43.6441C33.3582 43.6441 31.8043 44.7203 31.8043 46.9715C31.8043 48.9832 33.0395 49.9996 34.9125 49.9996C36.1742 49.9996 37.3832 49.4215 37.8016 48.4855L38.1207 49.7605H39.3563V43.0867C39.3563 40.975 38.4395 39.5605 35.8289 39.5605H35.8285ZM45.0133 48.4457C44.3559 48.4457 43.7778 48.366 43.3395 48.1668V42.1309C43.9371 41.6328 44.6742 41.2742 45.6106 41.2742C47.3043 41.2742 47.9621 42.4695 47.9621 44.402C47.9621 47.1508 46.9059 48.4457 45.0129 48.4457M45.7496 39.5605C44.1824 39.5605 43.3395 40.627 43.3395 40.627V38.9434L43.3336 36.7117H41.6203L41.6258 49.4422C42.4824 49.8004 43.6582 49.9996 44.9332 49.9996C48.2004 49.9996 49.7746 47.9078 49.7746 44.302C49.7746 41.4531 48.3203 39.5605 45.7496 39.5605ZM6.48127 38.1262C8.03596 38.1262 9.03206 38.6441 9.68909 39.1621L10.443 37.8574C9.41565 36.9566 8.03401 36.4727 6.56018 36.4727C2.8344 36.4727 0.224243 38.7441 0.224243 43.3262C0.224243 48.1266 3.04065 49.9996 6.26174 49.9996C7.87581 49.9996 9.2508 49.6207 10.1473 49.2426L10.1106 44.1129V42.4996H5.32815V44.1129H8.37698L8.4137 48.0074C8.01526 48.2066 7.3176 48.366 6.38088 48.366C3.79104 48.366 2.05666 46.7371 2.05666 43.3059C2.05745 39.8195 3.85081 38.1262 6.48088 38.1262M18.8125 36.7117H17.0989L17.1043 38.9031V46.473C17.1043 48.5852 18.0211 49.9996 20.6317 49.9996C20.9918 49.9996 21.3446 49.9668 21.6871 49.9047V48.3656C21.4234 48.4058 21.157 48.426 20.8903 48.4258C19.4551 48.4258 18.8176 47.6891 18.8176 46.4539V41.234H21.6867V39.7996H18.8172L18.8117 36.7117H18.8125ZM12.7508 49.7605H14.4645V39.7996H12.75V49.7605H12.7508ZM12.7508 38.4254H14.4645V36.7117H12.75V38.425L12.7508 38.4254Z" fill="#5C5C5C"/>
</g>
<defs>
<clipPath id="clip0_8_332">
<rect width="50" height="50" fill="white"/>
</clipPath>
</defs>
</svg>
