<svg width="50" height="50" viewBox="0 0 50 50" fill="none" xmlns="http://www.w3.org/2000/svg">
<g clip-path="url(#clip0_8_315)">
<path d="M18.7347 30.8674L18.8101 30.9041L18.9445 30.9689C19.116 31.0506 19.289 31.1314 19.4636 31.2092L19.5734 31.258C19.7738 31.3459 19.9754 31.4295 20.1793 31.51L20.3269 31.5678C20.5152 31.6412 20.7066 31.7123 20.8984 31.7799L20.9703 31.8045C21.1808 31.8779 21.3933 31.9463 21.6078 32.0131L21.7621 32.0588C21.98 32.1248 22.1953 32.2033 22.4203 32.2451C36.6992 34.8486 40.8465 23.6643 40.8465 23.6643C37.3629 28.2025 31.1797 29.3998 25.3211 28.067C25.0992 28.017 24.8836 27.9475 24.6672 27.8834L24.5043 27.8342C24.2933 27.7694 24.0833 27.7012 23.8746 27.6295L23.7882 27.5982C23.6022 27.5324 23.4172 27.4637 23.2332 27.3924L23.0777 27.3314C22.8764 27.2522 22.6766 27.1691 22.4785 27.0822L22.3586 27.0291C22.1892 26.9527 22.0207 26.8743 21.8531 26.7939L21.7066 26.7236C21.5754 26.6596 21.4453 26.5912 21.3156 26.5244L21.0547 26.3877C20.897 26.3029 20.7408 26.2153 20.5863 26.1248L20.4281 26.0365C20.2226 25.915 20.0191 25.7902 19.8175 25.6623L19.6531 25.5529C19.5068 25.4591 19.3619 25.3628 19.2187 25.2643L19.0789 25.1658C18.9406 25.0682 18.8039 24.9693 18.6683 24.8689L18.4863 24.7311C18.3616 24.6363 18.2382 24.5399 18.116 24.442L17.9508 24.3092C17.7952 24.1815 17.6413 24.052 17.489 23.9205L17.4386 23.8779C17.2742 23.7339 17.1122 23.5872 16.9527 23.4377L16.816 23.3061C16.6976 23.1939 16.5816 23.0807 16.4672 22.9646L16.3304 22.8279C16.1855 22.6794 16.0429 22.5286 15.9027 22.3756L15.8816 22.3529C15.7338 22.1911 15.5891 22.0265 15.4476 21.8592L15.334 21.724C15.2285 21.5971 15.1238 21.4682 15.0218 21.3381L14.9074 21.1959C14.7849 21.0376 14.6647 20.8776 14.5468 20.7158C11.2945 16.2791 10.1258 10.16 12.7254 5.13457L10.4211 8.05723C7.46833 12.3006 7.8363 17.8217 10.0914 22.3311L10.2566 22.6518L10.3625 22.8549L10.4281 22.9717L10.5457 23.1822C10.6156 23.3057 10.6871 23.4283 10.7605 23.551L10.8836 23.7537C10.9648 23.885 11.048 24.0146 11.1336 24.1443L11.2398 24.3092C11.3574 24.4842 11.4777 24.6592 11.6015 24.8311L11.6121 24.8447L11.673 24.9271C11.7804 25.0752 11.891 25.2213 12.0027 25.3658L12.1269 25.5236C12.2265 25.649 12.3285 25.774 12.4316 25.8982L12.548 26.0369C12.6867 26.2006 12.8281 26.3631 12.9726 26.5221L12.9812 26.5311L12.9976 26.549C13.1383 26.7029 13.2828 26.8529 13.4289 27.0037L13.5672 27.1432C13.6804 27.2572 13.7953 27.3693 13.9117 27.4811L14.0527 27.615C14.2078 27.7611 14.3644 27.9045 14.5246 28.0451L14.5324 28.051L14.6144 28.1213C14.7554 28.2432 14.8992 28.3646 15.0437 28.4838L15.2215 28.6252C15.3394 28.7197 15.459 28.8131 15.5793 28.9049L15.7703 29.0502C15.9031 29.1479 16.0367 29.2439 16.1715 29.3381L16.3179 29.442L16.3582 29.4705C16.4863 29.5588 16.6172 29.6432 16.748 29.7279L16.9168 29.8404C17.1172 29.9674 17.3211 30.0928 17.5269 30.2139L17.6957 30.3092C17.8472 30.3963 17.9992 30.4818 18.1535 30.5654L18.4066 30.6967L18.7347 30.8674ZM20.1773 16.4943C20.4972 16.9529 20.8515 17.4982 21.2761 17.867C21.43 18.0365 21.591 18.2014 21.755 18.3643L21.8816 18.4885C22.0414 18.6432 22.2035 18.7951 22.3707 18.9432L22.391 18.9604L22.3957 18.9654C22.5812 19.1279 22.7726 19.2842 22.9672 19.4381L23.0972 19.5396C23.2925 19.6893 23.4914 19.8361 23.6953 19.9764L23.7129 19.9893L23.9855 20.1689L24.1152 20.2549C24.2609 20.3479 24.4082 20.4393 24.5586 20.526L24.6211 20.5623C24.7504 20.6369 24.8816 20.7104 25.0129 20.7814L25.1519 20.8545L25.4261 20.9963L25.4675 21.015C25.6558 21.1076 25.8457 21.1967 26.0394 21.2814L26.1656 21.3334C26.3203 21.399 26.4769 21.4635 26.634 21.5236L26.8347 21.5971C26.9777 21.6502 27.1207 21.6986 27.2652 21.7467L27.4601 21.8092C27.6656 21.8729 27.8683 21.9533 28.0824 21.9889C39.1066 23.8158 41.6519 15.3271 41.6519 15.3271C39.3574 18.6314 34.9144 20.2076 30.173 18.9771C29.9635 18.9221 29.7554 18.862 29.5488 18.7967L29.3609 18.7361C29.2144 18.6889 29.0687 18.6385 28.9242 18.5857L28.7273 18.5123C28.5695 18.4517 28.4127 18.3886 28.257 18.3229L28.1304 18.2689C27.9366 18.1846 27.7448 18.0954 27.5554 18.0014L27.2668 17.8545L27.1004 17.7689C26.9777 17.7025 26.8558 17.633 26.7355 17.5631L26.6484 17.5135C26.4994 17.4265 26.3519 17.3368 26.2062 17.2443L26.073 17.1549L25.7871 16.9658C25.5849 16.8256 25.3863 16.6804 25.1914 16.5303L25.0574 16.4244C22.982 14.7865 21.3371 12.5467 20.5547 10.0072C19.7351 7.37441 19.9117 4.41816 21.3316 2.01934L19.5871 4.48262C17.4519 7.55488 17.5679 11.6686 19.2336 14.9182C19.5121 15.4643 19.8275 15.9909 20.1773 16.4943ZM31.7972 12.6932L32.0711 12.7881L32.1918 12.8264C32.3218 12.867 32.4504 12.9146 32.5843 12.9396C38.6715 14.1158 40.323 9.81582 40.7625 9.18301C39.316 11.2654 36.8855 11.765 33.9031 11.0412C33.6589 10.9791 33.418 10.9048 33.1812 10.8186C32.8897 10.715 32.6038 10.5963 32.3246 10.4631C31.7946 10.2081 31.2913 9.901 30.8222 9.54629C28.1535 7.5209 26.4957 3.65879 28.2371 0.512695L27.2949 1.81113C26.0363 3.66387 25.9125 5.96465 26.7859 8.00996C27.707 10.1818 29.5945 11.885 31.7972 12.6932ZM25.9215 37.6154H24.2707C24.224 37.6172 24.1791 37.6341 24.1427 37.6634C24.1063 37.6928 24.0804 37.7331 24.0687 37.7783L23.4828 40.4893L22.8968 43.2002C22.8853 43.2455 22.8595 43.2858 22.8231 43.3151C22.7868 43.3445 22.742 43.3613 22.6953 43.3631H21.5269C20.3711 43.3631 20.5047 42.5635 20.7414 41.4682L20.7484 41.435L20.7742 41.2967L20.7789 41.2709L20.8316 40.9897L20.8883 40.6885L20.9484 40.3818L21.2148 39.0803L21.4816 37.7787C21.4867 37.7588 21.4871 37.738 21.4827 37.718C21.4783 37.698 21.4692 37.6792 21.4563 37.6633C21.4433 37.6474 21.4268 37.6347 21.4081 37.6263C21.3893 37.618 21.3689 37.6141 21.3484 37.615H19.6543C19.6076 37.6167 19.5628 37.6336 19.5265 37.6631C19.4903 37.6925 19.4647 37.733 19.4535 37.7783L19.089 39.5064L18.725 41.235L18.7242 41.2373L18.6906 41.3982C18.2711 43.3135 18.382 45.1404 20.6625 45.1979L20.7289 45.199H24.3082C24.3548 45.1973 24.3997 45.1804 24.436 45.1511C24.4724 45.1217 24.4982 45.0814 24.5097 45.0361L25.2816 41.4076L26.0535 37.7787C26.0726 37.6889 26.0133 37.6158 25.9215 37.6154ZM8.24333 37.5963H6.43083C6.38401 37.5981 6.33899 37.6149 6.30237 37.6441C6.26575 37.6733 6.23945 37.7135 6.22731 37.7588L6.05544 38.5174L5.88356 39.276C5.86364 39.3654 5.92185 39.4385 6.01364 39.4385H7.8402C7.88698 39.4368 7.93195 39.42 7.96841 39.3906C8.00487 39.3613 8.03088 39.3209 8.04255 39.2756L8.20856 38.5174L8.37458 37.7592C8.39372 37.6697 8.33513 37.5963 8.24333 37.5963ZM7.71755 39.9572H5.8906C5.84379 39.9591 5.7988 39.9759 5.7622 40.0051C5.72559 40.0343 5.69927 40.0745 5.68708 40.1197L5.43044 41.2564L5.17419 42.3928L5.10271 42.7186L4.85622 43.8787L4.61013 45.0393C4.59099 45.1287 4.55153 45.2732 4.52224 45.36C4.52224 45.36 4.18083 46.3756 3.607 46.3639L3.53513 46.3623L3.03864 46.3533H3.03825C2.99161 46.3544 2.94656 46.3705 2.90971 46.3991C2.87287 46.4277 2.84618 46.4674 2.83356 46.5123L2.64411 47.3088L2.45505 48.1049C2.43356 48.1939 2.49138 48.2674 2.58239 48.2689C2.90778 48.2729 3.63669 48.2811 4.07771 48.2811C5.51091 48.2811 6.26677 47.4869 6.75075 45.2018L7.31755 42.5791L7.84919 40.1193C7.86833 40.0307 7.80895 39.9572 7.71755 39.9572ZM41.357 39.3424L41.2812 39.0295L41.2066 38.7092L41.1687 38.5475C41.0203 37.9705 40.5847 37.6381 39.6386 37.6381L38.166 37.6365L36.8097 37.6346H35.2836C35.2369 37.6363 35.1921 37.6531 35.1558 37.6825C35.1195 37.7118 35.0938 37.7522 35.0824 37.7975L35.0148 38.1162L34.9351 38.4928L34.9129 38.5986L34.2257 41.8174L33.5734 44.8729C33.5539 44.9627 33.5476 45.0729 33.5586 45.1174C33.5695 45.1623 33.7457 45.199 33.8371 45.199H35.2136C35.3054 45.199 35.4215 45.1826 35.4715 45.1623C35.5215 45.142 35.5953 44.9619 35.6136 44.8725L35.8582 43.6619L36.1031 42.451L36.1035 42.449L36.1363 42.2877L36.4332 40.8971L36.6953 39.6689C36.7068 39.6238 36.7326 39.5835 36.7689 39.5542C36.8051 39.5248 36.8499 39.508 36.8965 39.5061L41.2281 39.5041C41.3199 39.5049 41.3777 39.4318 41.357 39.3424ZM46.9332 36.5143L46.5996 36.5154H45.2132C45.1624 36.5183 45.1129 36.5321 45.0679 36.5559C45.0229 36.5797 44.9836 36.6129 44.9527 36.6533L41.8867 41.1447C41.8351 41.2205 41.7761 41.2096 41.7558 41.1205L41.53 40.1311C41.5179 40.0857 41.4915 40.0455 41.4548 40.0163C41.4181 39.987 41.373 39.9703 41.3261 39.9686H39.3554C39.2636 39.9686 39.2093 40.0404 39.2343 40.1283L40.1175 43.2225C40.1425 43.3107 40.1445 43.4553 40.1218 43.5443L39.7371 45.0416C39.714 45.1307 39.7703 45.2029 39.8621 45.2029H41.8101C41.8572 45.201 41.9026 45.1844 41.9398 45.1555C41.9771 45.1266 42.0044 45.0868 42.0179 45.0416L42.4031 43.5443C42.4336 43.4388 42.4815 43.3391 42.5449 43.2494L47.5222 36.6436C47.5777 36.5701 47.5476 36.5104 47.4562 36.5111L46.9332 36.5143ZM31.2746 40.3889V40.3873C31.2678 40.4345 31.2445 40.4777 31.2088 40.5093C31.1731 40.5408 31.1273 40.5587 31.0797 40.5596H28.5808C28.4941 40.5596 28.4504 40.501 28.4632 40.4283L28.4656 40.4225L28.464 40.4232L28.4652 40.415L28.4765 40.3725C28.7152 39.7381 29.2011 39.3217 30.1148 39.3217C31.1437 39.3213 31.3445 39.8236 31.2746 40.3889ZM30.5414 37.5045C27.334 37.5045 26.5738 39.4514 26.1472 41.4166C25.7211 43.4197 25.7574 45.292 29.0769 45.292H29.4793L29.5793 45.2916H29.6027L30.0011 45.2904H30.0082C30.8847 45.2869 31.764 45.2803 32.1199 45.2775C32.1663 45.2752 32.2106 45.258 32.2465 45.2284C32.2823 45.1989 32.3076 45.1586 32.3187 45.1135L32.4531 44.4568L32.4793 44.3291L32.6394 43.5455C32.6445 43.5256 32.6449 43.5049 32.6405 43.4848C32.6361 43.4648 32.627 43.4461 32.6141 43.4302C32.6011 43.4143 32.5846 43.4017 32.5659 43.3934C32.5471 43.385 32.5267 43.3812 32.5062 43.3822H29.5222C28.3351 43.3822 27.9828 43.067 28.1129 42.1396H32.8828L32.8824 42.14L32.8855 42.1396C32.9233 42.138 32.9597 42.1255 32.9905 42.1037C33.0214 42.0819 33.0453 42.0517 33.0593 42.0166L33.0707 41.9752L33.0703 41.9756C33.7785 39.3041 33.5754 37.5049 30.5414 37.5045ZM15.3812 40.3787L15.3359 40.5385V40.5389L14.9758 41.8154L14.6156 43.0916C14.6009 43.1368 14.5726 43.1765 14.5347 43.2052C14.4968 43.2339 14.451 43.2503 14.4035 43.2521H12.4972C11.0511 43.2521 10.6988 42.1209 11.0511 40.4529C11.4031 38.7467 12.0933 37.6861 13.5168 37.5787C15.4621 37.4318 15.8511 38.7998 15.3812 40.3787ZM16.689 43.1541C16.689 43.1541 17.5879 40.9713 17.7918 39.7111C18.0703 38.024 17.2254 35.5764 13.9621 35.5764C10.7175 35.5764 9.30817 37.9127 8.77067 40.4529C8.23317 43.0115 8.93747 45.2549 12.1636 45.2365L14.709 45.2271L17.0875 45.2186C17.1346 45.2162 17.1799 45.1994 17.2172 45.1705C17.2545 45.1416 17.282 45.1019 17.2961 45.0568L17.7105 43.4764C17.7336 43.3873 17.6777 43.3147 17.5859 43.3139L17.1886 43.3115L16.7914 43.3092C16.7136 43.3088 16.6691 43.258 16.6785 43.1912L16.689 43.1541ZM32.7515 41.6928C32.7516 41.7071 32.7488 41.7214 32.7433 41.7346C32.7378 41.7479 32.7298 41.76 32.7196 41.7702C32.7095 41.7803 32.6975 41.7884 32.6842 41.7939C32.6709 41.7995 32.6567 41.8023 32.6424 41.8023C32.628 41.8024 32.6138 41.7996 32.6005 41.7941C32.5872 41.7886 32.5751 41.7806 32.565 41.7705C32.5548 41.7603 32.5467 41.7483 32.5412 41.735C32.5357 41.7217 32.5328 41.7075 32.5328 41.6932C32.5327 41.6642 32.5442 41.6363 32.5647 41.6158C32.5852 41.5952 32.613 41.5836 32.642 41.5836C32.671 41.5835 32.6988 41.595 32.7194 41.6155C32.7399 41.636 32.7515 41.6638 32.7515 41.6928Z" fill="#0868AC"/>
</g>
<defs>
<clipPath id="clip0_8_315">
<rect width="50" height="50" fill="white"/>
</clipPath>
</defs>
</svg>
