<svg width="50" height="50" viewBox="0 0 50 50" fill="none" xmlns="http://www.w3.org/2000/svg">
<rect x="10.8" y="8" width="28" height="31" fill="white"/>
<path fill-rule="evenodd" clip-rule="evenodd" d="M36.6314 16.296H36.616H18.0012L18.4464 20.617H36.1884C35.9284 24.4021 35.1417 32.4215 34.853 36.0706L24.8878 38.8757V38.8841L24.8658 38.8946L14.894 35.386L14.2108 27.0984H19.0987L19.4446 31.5555L24.8746 33.5799H24.8878L30.3089 31.6357L30.8665 24.9379H13.9927C13.9111 24.0716 12.8621 12.8219 12.6792 11.975H37.0677C36.9311 13.4009 36.7922 14.8657 36.6314 16.296ZM5.44446 3.33301L8.98362 42.5415L24.8658 46.5429L40.7898 42.4614L44.3333 3.33301H5.44446Z" fill="#F16529"/>
</svg>
