<svg width="50" height="50" viewBox="0 0 50 50" fill="none" xmlns="http://www.w3.org/2000/svg">
<path d="M24.8165 24.9992C24.8165 20.9083 28.1328 17.5918 32.2238 17.5918C36.3147 17.5918 39.6311 20.9083 39.6311 24.9992C39.6311 29.0902 36.3147 32.4066 32.2238 32.4066C28.1328 32.4066 24.8165 29.0902 24.8165 24.9992Z" fill="#1ABCFE"/>
<path d="M10 39.8146C10 35.7237 13.3164 32.4072 17.4073 32.4072H24.8146V39.8146C24.8146 43.9056 21.4983 47.222 17.4073 47.222C13.3164 47.222 10 43.9056 10 39.8146Z" fill="#0ACF83"/>
<path d="M24.8165 2.77734V17.5921H32.2238C36.3148 17.5921 39.6311 14.2757 39.6311 10.1847C39.6311 6.09375 36.3148 2.77734 32.2238 2.77734H24.8165Z" fill="#FF7262"/>
<path d="M10 10.1847C10 14.2757 13.3164 17.5921 17.4073 17.5921H24.8146V2.77734H17.4073C13.3164 2.77734 10 6.09374 10 10.1847Z" fill="#F24E1E"/>
<path d="M10 24.9992C10 29.0902 13.3164 32.4066 17.4073 32.4066H24.8146V17.5918H17.4073C13.3164 17.5918 10 20.9083 10 24.9992Z" fill="#A259FF"/>
</svg>
