<svg width="50" height="50" viewBox="0 0 50 50" fill="none" xmlns="http://www.w3.org/2000/svg">
<path d="M20.6927 27.538C20.8567 24.5772 22.2891 21.9687 24.4501 20.1196C26.5693 18.3034 29.4218 17.1933 32.5341 17.1933C35.6433 17.1933 38.4958 18.3034 40.6166 20.1196C42.776 21.9687 44.2084 24.5772 44.3739 27.5348C44.5379 30.577 43.3298 33.4032 41.2106 35.4981C39.0496 37.6291 35.9759 38.9662 32.5341 38.9662C29.0923 38.9662 26.0125 37.6291 23.853 35.4981C21.7322 33.4032 20.5272 30.5771 20.6927 27.538Z" fill="white"/>
<path d="M26.4586 27.8041C26.5427 26.2849 27.2777 24.9465 28.3865 23.9977C29.4739 23.0658 30.9375 22.4962 32.5345 22.4962C34.1298 22.4962 35.5934 23.0658 36.6816 23.9977C37.7896 24.9465 38.5246 26.2849 38.6095 27.8025C38.6937 29.3635 38.0738 30.8136 36.9864 31.8885C35.8776 32.9819 34.3005 33.668 32.5345 33.668C30.7685 33.668 29.1882 32.9819 28.0801 31.8885C26.992 30.8136 26.3737 29.3635 26.4586 27.8041Z" fill="#265787"/>
<path d="M16.7831 30.8735C16.7935 31.468 16.9808 32.6233 17.2617 33.5255C17.8523 35.4351 18.8539 37.2017 20.2477 38.7587C21.678 40.359 23.4392 41.6444 25.4735 42.5571C27.6118 43.5155 29.9286 44.004 32.3352 44C34.7377 43.9968 37.0546 43.4986 39.1928 42.533C41.2271 41.6115 42.9868 40.3205 44.4147 38.7193C45.8076 37.156 46.8077 35.3861 47.3998 33.4765C47.6975 32.5116 47.8856 31.5323 47.961 30.5497C48.0348 29.5817 48.0039 28.612 47.8681 27.6431C47.603 25.7551 46.9577 23.9837 45.964 22.3689C45.0552 20.885 43.8837 19.586 42.4907 18.4926L42.4939 18.4902L28.4364 7.56496C28.4237 7.55532 28.4134 7.54489 28.3999 7.53606C27.4776 6.81944 25.9267 6.82185 24.9124 7.54008C23.8869 8.26634 23.7694 9.46738 24.6822 10.225L24.6782 10.229L30.5414 15.0549L12.6709 15.0742H12.6471C11.17 15.0758 9.75005 16.0567 9.46908 17.2963C9.18017 18.5593 10.1834 19.6069 11.7192 19.6125L11.7169 19.6181L20.7747 19.6004L4.61154 32.1581C4.59091 32.1734 4.56868 32.1894 4.54963 32.2047C3.02491 33.3865 2.53203 35.3516 3.49242 36.5952C4.4671 37.8597 6.53948 37.8621 8.08008 36.6024L16.9014 29.2949C16.9014 29.2949 16.7728 30.2814 16.7831 30.8735ZM39.4508 34.177C37.6332 36.0513 35.0885 37.1142 32.3352 37.1198C29.5778 37.1246 27.0331 36.0714 25.2155 34.2003C24.3274 33.2885 23.6749 32.2393 23.2725 31.1218C22.8781 30.0235 22.7249 28.8578 22.8265 27.6817C22.9225 26.532 23.2606 25.4354 23.8004 24.4432C24.3306 23.4679 25.0608 22.5866 25.9624 21.8411C27.7292 20.3837 29.9786 19.5948 32.3312 19.5916C34.6861 19.5884 36.9339 20.3701 38.7023 21.8226C39.6024 22.5649 40.3318 23.443 40.862 24.4167C41.4041 25.4081 41.7399 26.5007 41.8399 27.6535C41.9399 28.8281 41.7867 29.9922 41.3922 31.0912C40.989 32.212 40.339 33.2611 39.4508 34.177Z" fill="#EA7600"/>
</svg>
