<svg width="50" height="50" viewBox="0 0 50 50" fill="none" xmlns="http://www.w3.org/2000/svg">
<g clip-path="url(#clip0_8_337)">
<path d="M44.6285 19.8243C44.6285 8.87567 35.8455 1.99925e-05 25.0111 1.99925e-05C15.3547 -0.0137414 7.12551 7.07825 5.61445 16.7163C4.10338 26.3543 9.76019 35.6695 18.9479 38.6728V48.6058C18.9479 49.3758 19.5655 49.9999 20.3274 49.9999H29.6395C30.4014 49.9999 31.0191 49.3758 31.0191 48.6058V38.6797C39.1224 36.0429 44.6193 28.4272 44.6285 19.8243ZM25.0111 26.5231C21.3482 26.5231 18.3788 23.5224 18.3788 19.8209C18.3788 16.1193 21.3482 13.1186 25.0111 13.1186C28.674 13.1186 31.6433 16.1193 31.6433 19.8209C31.6433 23.5224 28.674 26.5231 25.0111 26.5231Z" fill="#2684FF"/>
<path fill-rule="evenodd" clip-rule="evenodd" d="M25.011 1.83864e-05V13.1256C28.6739 13.1256 31.6433 16.1263 31.6433 19.8278C31.6433 23.5294 28.6739 26.53 25.011 26.53C26.619 26.53 28.1612 27.1756 29.2983 28.3246C30.4354 29.4737 31.0742 31.0322 31.0742 32.6572V38.6867C40.2653 35.6829 45.9246 26.3647 44.4135 16.7232C42.9024 7.08177 34.6708 -0.013181 25.011 1.83864e-05Z" fill="url(#paint0_linear_8_337)"/>
</g>
<defs>
<linearGradient id="paint0_linear_8_337" x1="34.8197" y1="35.0969" x2="34.8197" y2="14.0388" gradientUnits="userSpaceOnUse">
<stop offset="0.18" stop-color="#0052CC"/>
<stop offset="1" stop-color="#2684FF"/>
</linearGradient>
<clipPath id="clip0_8_337">
<rect width="50" height="50" fill="white"/>
</clipPath>
</defs>
</svg>
