<svg width="50" height="50" viewBox="0 0 50 50" fill="none" xmlns="http://www.w3.org/2000/svg">
<path d="M39.8542 2H10.1458C5.64701 2 2 5.74053 2 10.3547V39.6453C2 44.2595 5.64701 48 10.1458 48H39.8542C44.353 48 48 44.2595 48 39.6453V10.3547C48 5.74053 44.353 2 39.8542 2Z" fill="#49021F"/>
<path d="M18.6541 15.8441V35.4458C18.6541 35.6512 18.5641 35.7537 18.3841 35.7536H14.7537C14.5934 35.7536 14.5135 35.651 14.5137 35.4458V15.8441C14.5137 15.6802 14.6037 15.5981 14.7837 15.598H18.414C18.5518 15.5779 18.6736 15.7029 18.6541 15.8441Z" fill="#FF3366"/>
<path d="M29.3951 36.0612C28.0141 36.0828 26.6458 35.7884 25.3897 35.1996C22.7229 33.9337 21.5641 31.132 21.5644 28.2451C21.5414 25.3654 23.0666 22.6216 25.5548 21.2599C27.2723 20.2841 29.2927 20.0362 31.2252 20.2137V14.1516C31.2252 14.0083 31.2853 13.9362 31.4053 13.9362H35.1855C35.2889 13.921 35.3803 14.0148 35.3656 14.1208V32.307C35.3656 33.0574 35.44 33.8051 35.4856 34.5534C35.493 34.6812 35.419 34.8076 35.3056 34.8611C34.3303 35.2783 33.3145 35.5877 32.2753 35.7842C31.3252 35.9641 30.3613 36.0568 29.3951 36.0612ZM31.2252 32.2455V23.8448C28.4973 23.0868 25.8244 25.1695 25.8247 28.0605C25.7588 31.0881 28.4583 33.0755 31.2252 32.2455Z" fill="#FF3366"/>
</svg>
