<svg width="50" height="50" viewBox="0 0 50 50" fill="none" xmlns="http://www.w3.org/2000/svg">
<path d="M39.8542 2H10.1458C5.64701 2 2 5.74053 2 10.3547V39.6453C2 44.2595 5.64701 48 10.1458 48H39.8542C44.353 48 48 44.2595 48 39.6453V10.3547C48 5.74053 44.353 2 39.8542 2Z" fill="#001E36"/>
<path d="M12.3568 34.2574V14.0333C12.3568 13.8859 12.4185 13.8118 12.542 13.8118C12.8707 13.8118 13.1709 13.8068 13.6237 13.7959C14.076 13.7856 14.5646 13.775 15.0895 13.7643C15.6141 13.7539 16.1696 13.7433 16.7559 13.7326C17.3421 13.7223 17.9233 13.717 18.4993 13.7168C20.0625 13.7168 21.3791 13.9172 22.4492 14.3182C23.4144 14.653 24.2947 15.2044 25.0259 15.9323C25.6457 16.5631 26.1248 17.3244 26.4299 18.1636C26.7186 18.9803 26.8649 19.8427 26.862 20.7114C26.862 22.3997 26.4814 23.7923 25.7202 24.8891C24.954 25.9905 23.877 26.8245 22.6344 27.2787C21.3383 27.7747 19.8981 27.9429 18.3142 27.9429C17.8614 27.9429 17.5426 27.9376 17.3576 27.927C17.1725 27.9166 16.8947 27.9114 16.5245 27.9112V34.2258C16.5298 34.2645 16.5264 34.3039 16.5143 34.341C16.5022 34.3781 16.4819 34.4118 16.455 34.4394C16.428 34.467 16.3952 34.4879 16.359 34.5002C16.3229 34.5126 16.2844 34.5161 16.2467 34.5106H12.5727C12.4286 34.5106 12.3568 34.4265 12.3568 34.2574ZM16.5244 17.6097V24.206C16.7915 24.2272 17.0384 24.2378 17.265 24.2376H18.2833C19.0326 24.2351 19.7769 24.1132 20.4897 23.8764C21.1011 23.6901 21.6474 23.3276 22.0635 22.8319C22.4646 22.3468 22.6652 21.6716 22.6653 20.8063C22.6815 20.1941 22.5262 19.59 22.2177 19.0656C21.8934 18.5585 21.4248 18.1662 20.8754 17.942C20.1581 17.6561 19.3919 17.5215 18.6228 17.5464C18.129 17.5464 17.6918 17.5517 17.3113 17.5622C16.9304 17.5731 16.6681 17.589 16.5244 17.6097Z" fill="#31A8FF"/>
<path d="M38.7935 23.006C38.2135 22.7004 37.5959 22.4768 36.9574 22.3413C36.2538 22.1758 35.5346 22.0908 34.8127 22.0881C34.4223 22.0773 34.0324 22.1253 33.6555 22.2306C33.4157 22.2854 33.2025 22.4255 33.0538 22.6262C32.9532 22.7867 32.8997 22.9734 32.8995 23.1642C32.9052 23.3493 32.9702 23.5273 33.0846 23.6706C33.2649 23.8869 33.4851 24.0643 33.7326 24.1928C34.1726 24.4358 34.626 24.6525 35.0904 24.8416C36.1261 25.1972 37.1157 25.6808 38.0374 26.2817C38.6653 26.6882 39.1849 27.2482 39.5495 27.9116C39.8561 28.5398 40.0096 29.2349 39.9969 29.9372C40.0154 30.8647 39.757 31.7758 39.2564 32.5483C38.7204 33.3326 37.9759 33.9423 37.1116 34.3048C36.1753 34.7267 35.0181 34.9377 33.6401 34.9379C32.7647 34.947 31.8908 34.8621 31.0326 34.6847C30.3564 34.5575 29.6982 34.3449 29.073 34.0517C29.0056 34.016 28.9494 33.9613 28.9112 33.894C28.8729 33.8267 28.8541 33.7497 28.857 33.6719V30.2537C28.8533 30.2203 28.8585 30.1864 28.8721 30.1557C28.8857 30.1251 28.9072 30.0988 28.9342 30.0796C28.9607 30.0643 28.9912 30.0576 29.0215 30.0604C29.0518 30.0632 29.0806 30.0755 29.1039 30.0955C29.8422 30.542 30.6439 30.8677 31.48 31.0608C32.217 31.2502 32.9729 31.3511 33.7327 31.3615C34.4525 31.3615 34.9823 31.2665 35.3219 31.0766C35.4752 31.0046 35.6049 30.8886 35.6953 30.7425C35.7857 30.5965 35.8328 30.4267 35.8311 30.2537C35.8311 29.9798 35.6768 29.716 35.3682 29.4625C35.0596 29.2093 34.4322 28.9033 33.4858 28.5446C32.5168 28.1987 31.5982 27.7196 30.7548 27.1204C30.1516 26.6902 29.6549 26.1211 29.3045 25.4588C29.001 24.8351 28.8476 24.146 28.857 23.4491C28.8553 22.6117 29.0796 21.7901 29.505 21.0753C29.9901 20.2883 30.6867 19.6618 31.5109 19.2713C32.4159 18.8075 33.5474 18.5754 34.9053 18.575C35.7006 18.5685 36.4951 18.6267 37.2814 18.7491C37.8508 18.8232 38.4075 18.9776 38.9356 19.208C38.9775 19.2204 39.016 19.2425 39.0482 19.2727C39.0803 19.3029 39.1051 19.3404 39.1207 19.3821C39.1416 19.4594 39.152 19.5393 39.1516 19.6195V22.8161C39.1538 22.8533 39.1463 22.8904 39.1301 22.9237C39.1138 22.957 39.0894 22.9854 39.0591 23.006C39.0178 23.027 38.9723 23.038 38.9263 23.038C38.8802 23.038 38.8347 23.027 38.7935 23.006Z" fill="#31A8FF"/>
</svg>
