<svg width="50" height="50" viewBox="0 0 50 50" fill="none" xmlns="http://www.w3.org/2000/svg">
<rect x="11" y="5" width="28" height="37" fill="white"/>
<path d="M44.4444 3.33301L40.798 42.8291L24.9997 47.0829L9.20118 42.8291L5.55554 3.33301H44.4444ZM37.0967 11.3639H24.9855H12.6597L13.2492 16.1334H24.9855H25.6448L24.9855 16.4078L13.6781 21.1173L14.0532 25.7793L24.9855 25.8148L30.8449 25.8334L30.4699 32.0496L24.9854 33.5937V33.5888L24.9405 33.6013L19.6439 32.2643L19.3225 28.4055H19.3049H14.3921H14.3748L15.0179 35.8548L24.9856 38.8025V38.7971L25.0036 38.8025L34.9179 35.9085L36.2039 21.1173H24.9856H24.9579L24.9856 21.1053L36.6149 16.1334L37.0967 11.3639Z" fill="#33AADD"/>
</svg>
