<svg width="50" height="50" viewBox="0 0 50 50" fill="none" xmlns="http://www.w3.org/2000/svg">
<path fill-rule="evenodd" clip-rule="evenodd" d="M25 0C18.3468 0 14.1532 3.32468 12.5 9.93398C15 6.6093 17.9032 5.36756 21.25 6.20874C23.1452 6.68942 24.5161 8.05134 26.0081 9.57348C28.4677 12.057 31.2903 14.901 37.5 14.901C44.1532 14.901 48.3468 11.5763 50 4.96699C47.5 8.29167 44.5968 9.53343 41.25 8.69225C39.3548 8.21157 37.9839 6.84964 36.4919 5.3275C34.0323 2.844 31.2097 0 25 0ZM12.5 14.8609C5.84677 14.8609 1.65323 18.1856 0 24.7949C2.5 21.4702 5.40323 20.2285 8.75 21.0697C10.6452 21.5504 12.0161 22.9123 13.5081 24.4344C15.9677 26.9179 18.7903 29.7619 25 29.7619C31.6532 29.7619 35.8468 26.4372 37.5 19.8279C35 23.1526 32.0968 24.3943 28.75 23.5532C26.8548 23.0725 25.4839 21.7106 23.9919 20.1884C21.5323 17.745 18.7097 14.8609 12.5 14.8609Z" fill="#06B6D4"/>
<path fill-rule="evenodd" clip-rule="evenodd" d="M3.1886 42.9112H1.96743V45.1654C1.96743 45.7694 2.3858 45.7586 3.1886 45.7263V46.6431C1.54907 46.8264 0.904568 46.395 0.904568 45.1762V42.922H0V41.9405H0.904568V40.6785L1.96743 40.3765V41.9405H3.1886V42.9112ZM7.84713 41.9297H8.91V46.6323H7.84713V45.9528C7.47399 46.4489 6.88602 46.7509 6.11714 46.7509C4.7716 46.7509 3.6635 45.6724 3.6635 44.281C3.6635 42.8788 4.7829 41.811 6.11714 41.811C6.88602 41.811 7.47399 42.113 7.84713 42.5984V41.9297ZM6.28675 45.791C7.18001 45.791 7.84713 45.1654 7.84713 44.281C7.84713 43.4073 7.18001 42.771 6.28675 42.771C5.40479 42.771 4.72637 43.3965 4.72637 44.281C4.72637 45.1654 5.40479 45.791 6.28675 45.791ZM10.6852 41.2286C10.3121 41.2286 10.0068 40.9266 10.0068 40.5814C10.0068 40.2255 10.3121 39.9343 10.6852 39.9343C11.0583 39.9343 11.3636 40.2255 11.3636 40.5814C11.3749 40.9266 11.0583 41.2286 10.6852 41.2286ZM10.1538 46.6323V41.9297H11.2166V46.6323H10.1538ZM12.4491 46.6323V39.7617H13.512V46.6323H12.4491ZM20.4319 41.9297H21.5513L20.0023 46.6323H18.962L17.9331 43.4613L16.8928 46.6323H15.8526L14.3035 41.9297H15.4229L16.384 45.1762L17.4242 41.9297H18.4419L19.4708 45.1762L20.4319 41.9297ZM22.8856 41.2286C22.5124 41.2286 22.2071 40.9266 22.2071 40.5814C22.2071 40.2255 22.5124 39.9343 22.8856 39.9343C23.2587 39.9343 23.564 40.2255 23.564 40.5814C23.564 40.9266 23.2587 41.2286 22.8856 41.2286ZM22.3428 46.6323V41.9297H23.4057V46.6323H22.3428ZM27.2388 41.811C28.3469 41.811 29.1384 42.5229 29.1384 43.7525V46.6431H28.0755V43.8495C28.0755 43.1377 27.6459 42.7602 26.9674 42.7602C26.2664 42.7602 25.7123 43.1593 25.7123 44.1192V46.6431H24.6495V41.9405H25.7123V42.5445C26.0403 42.0483 26.5717 41.811 27.2388 41.811ZM34.1814 40.0529H35.2442V46.6431H34.1814V45.9636C33.8082 46.4597 33.2203 46.7617 32.4514 46.7617C31.1058 46.7617 29.9977 45.6831 29.9977 44.2918C29.9977 42.8896 31.1171 41.8218 32.4514 41.8218C33.2203 41.8218 33.8082 42.1238 34.1814 42.6092V40.0529ZM32.6323 45.791C33.5256 45.791 34.1927 45.1654 34.1927 44.281C34.1927 43.4073 33.5256 42.771 32.6323 42.771C31.7503 42.771 31.0719 43.3965 31.0719 44.281C31.0719 45.1654 31.739 45.791 32.6323 45.791ZM38.8173 46.7617C37.3247 46.7617 36.2166 45.6831 36.2166 44.2918C36.2166 42.8896 37.336 41.8218 38.8173 41.8218C39.7897 41.8218 40.6264 42.2964 41.0222 43.0406L40.1063 43.5475C39.8914 43.1053 39.4052 42.8249 38.8173 42.8249C37.9466 42.8249 37.2908 43.4505 37.2908 44.3026C37.2908 45.1546 37.9466 45.7802 38.8173 45.7802C39.4052 45.7802 39.8915 45.489 40.1289 45.0576L41.0448 45.5537C40.6264 46.2764 39.7897 46.7617 38.8173 46.7617ZM42.7974 43.2348C42.7974 44.0868 45.4545 43.5691 45.4545 45.3164C45.4545 46.2548 44.5952 46.7617 43.5323 46.7617C42.5486 46.7617 41.8363 46.3411 41.5197 45.6616L42.4355 45.1546C42.5938 45.5753 42.9896 45.8341 43.5323 45.8341C44.0072 45.8341 44.3691 45.6831 44.3691 45.3056C44.3691 44.4643 41.7119 44.9389 41.7119 43.2563C41.7119 42.3719 42.5147 41.8218 43.521 41.8218C44.3351 41.8218 45.0023 42.1777 45.3415 42.8033L44.4482 43.2779C44.2673 42.9112 43.9281 42.7386 43.521 42.7386C43.1366 42.7278 42.7974 42.8896 42.7974 43.2348ZM47.3428 43.2348C47.3428 44.0868 50 43.5691 50 45.3164C50 46.2548 49.1407 46.7617 48.0778 46.7617C47.0941 46.7617 46.3817 46.3411 46.0651 45.6616L46.981 45.1546C47.1393 45.5753 47.5351 45.8341 48.0778 45.8341C48.5527 45.8341 48.9145 45.6831 48.9145 45.3056C48.9145 44.4643 46.2574 44.9389 46.2574 43.2563C46.2574 42.3719 47.0602 41.8218 48.0665 41.8218C48.8806 41.8218 49.5477 42.1777 49.8869 42.8033L48.9937 43.2779C48.8128 42.9112 48.4735 42.7386 48.0665 42.7386C47.682 42.7278 47.3428 42.8896 47.3428 43.2348Z" fill="black"/>
</svg>
