<svg width="50" height="50" viewBox="0 0 50 50" fill="none" xmlns="http://www.w3.org/2000/svg">
<path d="M39.8542 2H10.1458C5.64701 2 2 5.74053 2 10.3547V39.6453C2 44.2595 5.64701 48 10.1458 48H39.8542C44.353 48 48 44.2595 48 39.6453V10.3547C48 5.74053 44.353 2 39.8542 2Z" fill="#00005B"/>
<path d="M21.1787 29.8882H14.4694L13.1043 34.2458C13.0664 34.4074 12.9176 34.5218 12.7557 34.5139H9.35754C9.16375 34.5139 9.09598 34.4047 9.15423 34.1862L14.9631 17.0984C15.0213 16.9197 15.0793 16.745 15.1374 16.5164C15.2134 16.119 15.2523 15.715 15.2536 15.31C15.237 15.1903 15.3402 15.0844 15.4569 15.1014H20.075C20.2103 15.1014 20.2877 15.1511 20.3073 15.2504L26.9006 34.216C26.9586 34.4147 26.9005 34.514 26.7262 34.5139H22.9504C22.818 34.5289 22.6915 34.4381 22.66 34.3054L21.1787 29.8882ZM15.515 26.214H20.104C19.3501 23.6376 18.4992 21.095 17.8096 18.4985C17.028 21.1919 16.3064 23.6898 15.515 26.214Z" fill="#9999FF"/>
<path d="M31.8041 28.2056C32.0711 30.4182 33.9291 31.4731 35.9865 31.4282C37.1467 31.4053 38.3865 31.2253 39.4705 30.7866C39.5672 30.7075 39.6158 30.7568 39.6158 30.9355V33.7655C39.625 33.9128 39.5634 34.0443 39.4415 34.123C38.0942 34.7351 36.5474 34.9196 35.0861 34.8962C30.7289 34.8962 27.7366 31.8261 27.7378 27.3594C27.7264 23.1266 30.4725 19.5556 34.7376 19.5556C38.3529 19.4618 40.8559 22.3565 40.866 25.9594C40.866 26.6156 40.8294 27.2741 40.7498 27.9255C40.7344 28.0597 40.6201 28.1638 40.4884 28.1638C37.6009 28.1638 34.6994 28.2056 31.8041 28.2056ZM31.8041 25.4919C33.4133 25.4919 35.0318 25.5487 36.64 25.4769C36.8817 25.4522 37.0612 25.4064 37.0612 25.155C37.0276 23.8193 35.9004 22.7208 34.5924 22.7719C33.012 22.6739 32.0005 24.008 31.8041 25.4919Z" fill="#9999FF"/>
</svg>
