<svg width="50" height="50" viewBox="0 0 50 50" fill="none" xmlns="http://www.w3.org/2000/svg">
<g clip-path="url(#clip0_8_308)">
<path d="M0 10C0 4.47715 4.47715 0 10 0H40C45.5229 0 50 4.47715 50 10V40C50 45.5229 45.5228 50 40 50H10C4.47715 50 0 45.5228 0 40V10Z" fill="#F7DF1E"/>
<path d="M13.1469 41.784L16.973 39.4684C17.7113 40.7771 18.3828 41.8846 19.9935 41.8846C21.5375 41.8846 22.5111 41.2807 22.5111 38.9314V22.9553H27.2098V38.9979C27.2098 43.8645 24.357 46.0797 20.1949 46.0797C16.4361 46.0797 14.2543 44.133 13.1467 41.7836M29.7619 41.2805L33.5877 39.0654C34.5949 40.7102 35.9039 41.9184 38.2195 41.9184C40.1666 41.9184 41.408 40.9449 41.408 39.6023C41.408 37.9914 40.1326 37.4207 37.9846 36.4812L36.8101 35.9773C33.4201 34.5346 31.1715 32.7221 31.1715 28.8959C31.1715 25.3717 33.8564 22.6865 38.0519 22.6865C41.0391 22.6865 43.1871 23.7271 44.7308 26.4457L41.0723 28.7953C40.2666 27.3521 39.3943 26.7816 38.0517 26.7816C36.6756 26.7816 35.8029 27.6543 35.8029 28.7953C35.8029 30.2049 36.6756 30.7758 38.6892 31.6484L39.8639 32.1518C43.858 33.8637 46.1066 35.6088 46.1066 39.5354C46.1066 43.7646 42.784 46.0803 38.3201 46.0803C33.957 46.0803 31.1377 43.9994 29.7617 41.2807" fill="black"/>
</g>
<defs>
<clipPath id="clip0_8_308">
<rect width="50" height="50" fill="white"/>
</clipPath>
</defs>
</svg>
